/* XPM */
static char *noname[] = {
/* width height ncolors chars_per_pixel */
"129 122 9 1",
/* colors */
"  c #000",
". c #FFF",
"X c #AAA",
"o c #666",
"O c #222",
"+ c #CCC",
"@ c #888",
"# c #444",
"$ c None",
/* pixels */
".................................................................................................................................",
".................................................................................................................................",
"..................................+..............................................................................................",
"...........................+@o@o#######oX+...............................................................+X@@@@X+................",
"........................X##@+..++.......X@oo..........................................................+o #@@XXXoOOX..............",
"......................@oXX+..+XXX@o@@@+X@+.+@@+.....................................................Xo#@+.X.X....Xo#+............",
"....................+oX...@@@###O#ooX@O# ##..+o@..................................................X#o.+@o#ooo@oo@++XO@...........",
"..................XoX++@o@X##ooO#o#o@oOOOO #o+.+oo+...++...............................+X......Xo##@#OOO##oo@@#o#oXX.X#@.........",
"................oO+..+#O##o##O@##oooooO#@# #oOOX+.##ooX#...............................X.@#o###XO O#O####X@@o@X#@@#@X+X#@........",
"...............@o..++#@O#@o#O#XXX#@o@o@@+@o@o# oo+++..Xo...............................XX.++XX@o  O#@oX+XoX@oo#o# #o@#oX#X.......",
"..............X@...#XX##O#oX#X+X++X@@#@X++X+@@oXo+X+.@o.................................@+.XX##oo@@+XXX+XXX+X@X  #o#O@+++O.......",
".............X@..+XXX@@o  oX@o..Xo#OO OO@@.X.@X+++X#o+...................................XoX+@#X@X+X+X+X@XXXXoo OO#Xo   Xo@......",
"............+@+..+XX@++oo oX++X##@XX....+X@@Xo@@oo@........................................@oo#@ooooo#o@X@@X@XO#O#@o #oooXO......",
"............#+..X+O#@Xo.+OoXX##+.......................................................................@#O@o@#+X@@O OO #o.oo.....",
"..........+o...+@oX@XX++++Xoo+............................................................................@@Xo@Xo##  OO##@.#.....",
"..........o...+XXXOX++@+.+O+...............................................................................+o@@OXX#O@o#OoX.X@....",
".........X@..++oXXXX++X@X#..................................................................................Xo#@+XX#OO##@o+.O....",
".........O..+.@XX#XX+++X#....................................................................................@#@X++o o@o#X+.#X...",
"........oX..@@X+o+#oX++#.............................@#O#O##@.................................................Oo+X#X@ ####@.oo...",
".......+O..+++@@XXXoX+@..........................+o@@+....+Xo##@...........+XX+X+.............................Xo.#@X    ##X++#...",
".......Xo...+X+X@X@+ooX.........................@O+.........+..o#........+o  #o## o+...........................@+Ooo+#@@o@@+.O...",
".......o.....+X+XXoX@o.......................+@oX..X.+@++ooXO@o++o@....+oOo#@oX@@..oOo+........................XooX+XO##OO@X.#...",
".......o...++X@X+XXo@X......................Xo+...XXX@#@   #O#Oo@..#.@ooo #@##@# OXX@X#o........................#++Xo@#   #X+#...",
"......Xo..X@@@@oXo#+o......................+#+...@O#@o#O@  OO OOoX+. # O  O O## O ###O@@#+......................o+XXo##ooXXo.#...",
"......@X..++.@#@@X#.#......................o...+Xoo #O  @   O O ##o@+##O    O##     O#O+@OX.....................@.o#+@X@o#O#.o...",
"......#+.+.+XXooOO@@@.....................#+.Xo@ooOO  #OO      O #Ooo o#      #        XX.#@....................XXo@X+o@+X@oXo+..",
"......#......+X@ooO#X....................oX.X@@O##OO  o#       O OOO O##OOoO  O        ##+Xo@...................X@+++oo@@XXX+@+..",
"......o..+XXXX@o@oo#X...................o@.+@o@     O  O          O O  O+O# OO  O      O Oo.oX..................X+XX#O   #X@+XX..",
"......o...+.+oOO##+#+..................@@.+# O                        #@o+ ##@ O          #@.@X.................@+XXX@O##O##.@+..",
".....+o..X+++X#ooX+#+.................Xo.+@o       O           O      O@+@oO@+#o            @.@.................o..++ooXXX+XX@...",
".....X@+X@o#o@ooOo.#+................+o.X@## #  O      O O     O o#  o XX#@####+#           OX+o................#.X@o####o@+@@...",
".....+@.+.+X@o@+@X.#+................#+@X#oO ##    #     O       O   @OXXoo#X.o.o   O    O OO@.+@..............Xo+X#OO oXo@++@...",
"......o..++Xooo#oX.@X...............@+XoO    O#O    #  #         #@oO@o+o@oXOOXoo O O#O   O O @X@@.............@+o    ##O#@X.@...",
"......@.++@O#X@oOX.+@..............XXX@O     Oo#  O O          O+...O@X+XXo+XO##O   O#O    O O##+@+............o.o#OOXo@@@@X.@...",
"......o.+XX+@+@#@o..o.............+@+.#o  O   O   #@o+.+Xo###@X.....o@@++X.XX+##@@+Xo O    Oo  ##.#+..........#+.@O##@#Ooo.+.@...",
"......o.+.+@X@@+@@o.@+...........@X@##O OO  O#oo++..........+........#@#@@Xo#O#X+...+XX++XooO  O##X@+........@XXOO##@oo@O@@+oX...",
"......#...++@o@oooX@+@..........o@X@#OoO#O#+..............+..........+o##o  O#.......o+.....+o#@@@O@oX......@XX#O OO#o#@@X@.#+...",
"......#+.+X+oXOO oXo.X+.......X#X#@O O# Oo+..............X+.............@o+ oX+.......@.......@O#@oOo@ oXX@#X+O@  O@ XXoX.XX@....",
"......oX++.X####o#Oo@.#@.....o+o#Oo # OX..............+oo X.......X@.X....o#@@@.......@@.......+#@@OooX+@oX#Oo#o#oO#+O@#+X+X+....",
"......@@.+Xo#ooX#  o#XXO@XX@X++#   O o+............+O#@O O+.......XXXX....++@O@...+@@+.oX.......X#@##O##XO#  O#@ ##OoooXX+@o.....",
"......+#+.Xo@@XO  @##o#O@XX.+o##    #.............+##.#  #..........X@......@ @...o #+..#........X @o#o#@ #  OoOoO#O +XXX+@X.....",
".......#+.++.@@  o#o X#Oo..X@      #..............##+XO  X............++..+O@X...+ #@...XX........o@@# #o @O# OoO#@OO#X+XXo......",
".......o+...X.o###X#o## O@@@#O  #O#+.............+#@X.  @........................@ o.....o........+##@o#X X## ###@o@#o+X.oX......",
".......+#++.+X@#O#ooo#   @#O#O  Oo..............XO@o..#@....+X++Xo.....++........OoXX++..@.........@@@O#oOX#o ##Xo@@+XX+X@.......",
"........XX+X+X@@X+#@o##OO@# oO##O...............oo++.++....X@....#+....++........ Oo..X..X..........#@#oo#oooooo+@o@.X+Xo+.......",
".........#+++++++#X##o# OOO ##O #+..............o.+......+X......XO+....#+......+ #.....@+..........ooXXOo@oo@Xo.+@+XX+o+........",
"..........o+.++@#o@oX@ OOoO oo@O+.............+X..X.......+.......@.....XX......X +.....o............OX+#oX@o@X@X+@++ooX.........",
"..........XXX+oX@@o+XoOXO#@O@@##.............++...+.......o..Xo@#@X+......+.....+#.X@ooXX............o#Xooo+@@@++X+X+OX..........",
"...........@X@X@XX+XX@o+# @#@XO...................X......@###    O##.....+.......#o@@O  OX+..........+ ooXo+X@X++@.o#+...........",
"............oX@+++X+@#+Xo@+@+#@...................X......@ OOoO  @.+X.....+......@@.#  OO +...........oXo+XX+@X+.+@o.............",
".............@..X@+X+o.XX@.++ ....................X......oO@.X  # +.......+.......#o  O#.#+...........+OX+..+.XXX@+..............",
"..............o.X+o+Xo++X..+X ....................+......@++.@   O.X...............#   o...............+  ###oX..................",
"..............+o.+..X@XX@+++@o...................++......+#X..o O..X...............+ o@.Xo@.............o#.......................",
"...............+@+.X@X@@X.+.X@...................@.........o@X.....X................+@+@@@..............XX+......................",
".................oo@++.+++.+@+...................o..........+.@@@@...X...............ooX#@...............XX......................",
"..................+#o..X....X...................+#..................X.................@.+XX...............o+.....................",
"....................+X@#X++X@...................@X+.................+.................@+.oXX...............X.....................",
".......................+@@o#@...................@X+...................................+@.X@o+..............X.....................",
"...........................@...................X@X+....................................@X.o.o..............@+....................",
"...........................@...................o.X+.....................................#.@..@+.............o.@o.................",
"...........................o..................X+.X+.....................................@+X@..@o+...........@###.................",
"...........................@................++@...+.....................................+oXo....o###...X+....# @.................",
"..........................o@.................@....X.....................+XoX.............oXo......+@OOo+X@XX+O#..................",
".........................o@................Xo+....+...................+o@@X@##............#o.........Xoo@@XX@+...................",
"........................XX................+#+......+.................@@......+@+..........Xo...+XX...............................",
"........................X+..............+Xo.........................@X.X+.......X+.........+#X#o++#..............................",
"........................X+............+@@o..........................#.OOXX+.....+O X.........X....@X.............................",
"........................o+..........+X+#@X..........................@@ X..+......+#OoX............+#.............................",
".......................@o.......+..+#@o.+@..........................X@ ............X#O@............#.............................",
"......................#X......+#oOOO@...X@..........................@X#..@ oo+.......+X+...........o+............................",
".....................@X....+XX#.Xo+.....+@..........................X++..# #+@X.......+++..........X+............................",
"....................XX....X@#@X@#........X+..............+X+.........X...+# O@@X.......+...........XX............................",
"....................X..+o#@@X..X@........+@..............+X..................+@@X..................XX............................",
"....................X.X##o#o...XX........@+..........................+........X@#..................#.............................",
"....................@oX..X+....@........+@o..................XXX....+.........X+o+...............X#X.............................",
"...............................@........@Xo....................@....+.........X.+X............++o @..............................",
"...............................@........XXo.....................X..+.............+...........X#@ @...............................",
"...............................X.........XoX....................@..X.......................+X##OX................................",
"...............................X...........@+...................+X++.....................X@o###+.................................",
"...............................X...........@X....................oX.....................@#@oo#X..................................",
"...............................@...........+X.....................#X...................+@oX++#+..................................",
"...............................@...........X@+....................Xo..........................oX.................................",
"...............................X...........X+@@....................@+..........................#@................................",
"...............................+X..........+++.@X...................#...........................oo...............................",
"...............................+o.............@++X..................XO+.........................#+...............................",
"................................o.............o..XX..................o#+...................+++X@@................................",
"................................X+.............++X+X..................X@+........+.X@#O  OO   #X.................................",
"................................XX................XXX..................+# O#@@o.XOOXX+XX@oO  X...................................",
".................................o...............@@++....................@#@X@o#o+.........+o....................................",
".................................O..............+X+X........................XX+.............o....................................",
".................................XX.............+@X.........................................@+...................................",
"..................................@.............X.+.........................................X+...................................",
"..................................@..............@X+........................................@+...................................",
"..................................+@..............XXX@X......................+.+............#+...................................",
"...................................X...............+X.Xo..............++....+.++@#    O##OOOX....................................",
"...................................XX...............+X.@X.............+X..+.X@O O     oX..++.....................................",
"....................................#.................X.@............++..oO#o  #O    X...........................................",
".....................................@.................+o.....+........++#XoOOO#O@o#o............................................",
".....................................@X................X....+++.........+++@@oo#..X#.............................................",
"......................................@+..............X+.+..XX..............+.X...X#+............................................",
".......................................@+............X..+.+.@X.+.++.........X.X....@o............................................",
"........................................XX.............+.+..#.+.++...........+X.....#............................................",
".........................................oo...........+X.+..#XX.@............+.X..+.X+...........................................",
".........................................+oX............X.+.+OX.o..............X..+.XX...........................................",
"..........................................+X+............+++.X@.X..............X+.+.#+...........................................",
"...........................................+o............+XX..XX.o............+@+++XO............................................",
"............................................+...............+..X.@X...........@X.X+#+............................................",
".............................................................+++++@o+........@oXX@X+.............................................",
".............................................................++..+X+@+....+X#@@@X................................................",
"............................................................X.X..XX.++...+@#XXo..++++............................................",
"..........................................................+X.X....@XXX..XXo+@@..+X...+...........................................",
".........................................................+++X....+@@++.+XXXXoX.+X.....+..........................................",
".........................................................X.+.....Xo@X.+XXX.oO..XXX+...+.+........................................",
".........................................................+X......XX+X.++XXXOo.+#oO@+X.X@+........................................",
".........................................................+X.....+++XX.++++oOX.oX##O@o@#@o........................................",
"...........................................................++...+..XO++XXX@ +.#O# O  #XXX........................................",
"................................................................+...o#@+X+X +.o.@#oX@o...........................................",
".................................................................X....X.@#.OX.+X#O   X...........................................",
"..................................................................++...+.XXXo+.+XoOoX............................................",
".......................................................................++..+X@+..+XXX@@XX........................................",
".........................................................................++..XXX+................................................",
"................................................................................................................................."
};
